<svg width="93" height="93" viewBox="0 0 93 93" fill="none" xmlns="http://www.w3.org/2000/svg">
<g id="&#208;&#186;&#208;&#190;&#208;&#189;&#209;&#129;&#209;&#131;&#208;&#187;&#209;&#140;&#209;&#130;&#208;&#176;&#209;&#134;&#208;&#184;&#209;&#143; &#208;&#184;&#208;&#186;&#208;&#190;&#208;&#189;&#208;&#186;&#208;&#176; 1">
<g id="Layer_2">
<g id="Group">
<path id="Vector" d="M44.7023 26.1562H21.8156C18.5824 26.1562 15.9668 28.79 15.9668 32.0051V47.5354C15.9668 50.6051 18.3463 53.148 21.3797 53.3842V57.6527C21.3797 58.1977 21.7066 58.7062 22.2152 58.9061C22.3787 58.9787 22.5604 59.015 22.742 59.015C23.1053 59.015 23.4504 58.8697 23.7047 58.6154L28.9178 53.4023H42.45V55.3822C42.45 58.6154 45.0838 61.2492 48.317 61.2492H64.1197L69.3328 66.4623C69.5871 66.7166 69.9504 66.8619 70.2955 66.8619C70.4771 66.8619 70.6406 66.8256 70.8223 66.7529C71.3309 66.535 71.6578 66.0445 71.6578 65.4996V61.2129C74.673 60.9768 77.0707 58.452 77.0707 55.3641V39.8338C77.0707 36.6006 74.4369 33.9668 71.2037 33.9668H50.5693V31.9869C50.5693 28.7719 47.9355 26.1562 44.7023 26.1562ZM28.3365 50.6777C27.9732 50.6777 27.6281 50.823 27.3738 51.0773L24.0861 54.365V52.04C24.0861 51.2953 23.4686 50.6777 22.7238 50.6777H21.8156C20.09 50.6777 18.6914 49.2791 18.6914 47.5535V32.0232C18.6914 30.2977 20.09 28.899 21.8156 28.899H44.7023C46.4279 28.899 47.8266 30.2977 47.8266 32.0232V47.5535C47.8266 49.2791 46.4279 50.6777 44.7023 50.6777H28.3365ZM71.1855 36.7096C72.9111 36.7096 74.3279 38.1082 74.3279 39.852V55.3822C74.3279 57.1078 72.9293 58.5246 71.1855 58.5246H70.2773C69.5326 58.5246 68.915 59.1422 68.915 59.8869V62.2119L65.6273 58.9242C65.373 58.6699 65.0279 58.5246 64.6646 58.5246H48.2988C46.5732 58.5246 45.1564 57.126 45.1564 55.3822V53.3842C48.1717 53.148 50.5512 50.6232 50.5512 47.5535V36.7277H71.1855V36.7096Z" fill="black"/>
<path id="Vector_2" d="M33.2959 45.2471C32.9326 45.2471 32.5875 45.3924 32.3332 45.6467C32.0789 45.901 31.9336 46.2461 31.9336 46.6094C31.9336 46.9727 32.0789 47.3178 32.3332 47.5721C32.5875 47.8264 32.9326 47.9717 33.2959 47.9717C33.6592 47.9717 34.0043 47.8264 34.2586 47.5721C34.5129 47.3178 34.6582 46.9727 34.6582 46.6094C34.6582 46.2461 34.5129 45.901 34.2586 45.6467C34.0043 45.3924 33.6592 45.2471 33.2959 45.2471Z" fill="black"/>
<path id="Vector_3" d="M33.2596 31.5869C30.9346 31.5869 29.0273 33.476 29.0273 35.8191V35.91C29.0273 36.6547 29.6449 37.2723 30.3896 37.2723C31.1344 37.2723 31.752 36.6547 31.752 35.91V35.8191C31.752 35.0018 32.424 34.3115 33.2596 34.3115C34.0951 34.3115 34.7672 34.9836 34.7672 35.8191C34.7672 36.6184 34.4584 37.3631 33.8953 37.9262C32.642 39.1795 31.9518 40.8506 31.9518 42.6307C31.9518 43.3754 32.5693 43.993 33.3141 43.993C34.0588 43.993 34.6764 43.3754 34.6764 42.6307C34.6764 41.5771 35.076 40.5963 35.8207 39.8516C36.8924 38.7799 37.4918 37.3449 37.4918 35.8191C37.4918 33.476 35.5846 31.5869 33.2596 31.5869Z" fill="black"/>
</g>
</g>
</g>
</svg>
