<svg width="25" height="25" viewBox="0 0 25 25" fill="none" xmlns="http://www.w3.org/2000/svg">
<g id="&#208;&#191;&#209;&#128;&#208;&#190;&#209;&#129;&#208;&#188;&#208;&#190;&#209;&#130;&#209;&#128; 1">
<g id="Group">
<path id="Vector" d="M12.4816 16.3242C12.4812 16.3242 12.4812 16.3242 12.4816 16.3242C12.2488 16.3242 12.0155 16.3024 11.7874 16.2594C9.84094 15.8926 8.45774 13.9906 8.70422 12.0203C8.94875 10.068 10.7347 8.55119 12.7417 8.68166C14.7179 8.8047 16.3257 10.5176 16.3257 12.4996C16.3257 12.8176 16.2863 13.1344 16.2089 13.441C15.7866 15.1121 14.2187 16.3242 12.4816 16.3242ZM12.5089 9.45587C10.9968 9.45587 9.66633 10.625 9.47961 12.1172C9.28352 13.686 10.3835 15.1996 11.9323 15.4918C12.1128 15.5258 12.2976 15.543 12.4812 15.543C13.8663 15.543 15.1155 14.5785 15.4515 13.25C15.5132 13.0059 15.5445 12.7535 15.5445 12.5C15.5445 10.9227 14.2655 9.55978 12.6929 9.46173C12.6316 9.45783 12.5702 9.45587 12.5089 9.45587Z" fill="#8C8C8C"/>
<path id="Vector_2" d="M12.4877 18.6694C11.9068 18.6694 11.3236 18.6279 10.7424 18.5428C7.13415 18.0154 3.86892 15.8315 2.00798 12.6998C1.89782 12.5143 1.95876 12.2748 2.14431 12.1647C2.32946 12.0537 2.56892 12.1151 2.67985 12.301C4.42126 15.2319 7.4779 17.2764 10.8552 17.7701C14.4275 18.2901 18.0783 17.0694 20.6205 14.5002C21.2744 13.8393 21.8467 13.0994 22.3209 12.301C22.431 12.1154 22.6709 12.0541 22.856 12.1647C23.0416 12.2744 23.1025 12.5147 22.9924 12.6998C22.4857 13.5529 21.8748 14.3432 21.1763 15.0494C18.8728 17.3764 15.7193 18.6694 12.4877 18.6694Z" fill="#8C8C8C"/>
<path id="Vector_3" d="M2.34353 12.8911C2.27556 12.8911 2.20681 12.8735 2.14431 12.836C1.95876 12.7258 1.89782 12.486 2.00798 12.3008C2.5154 11.4469 3.12634 10.6567 3.82439 9.95122C6.54079 7.20591 10.4404 5.89966 14.2576 6.45786C17.8658 6.9852 21.131 9.16919 22.9916 12.3008C23.1017 12.4864 23.0408 12.7258 22.8552 12.836C22.6697 12.9465 22.4303 12.8852 22.3201 12.6997C20.5783 9.7688 17.522 7.72427 14.1443 7.23052C10.5728 6.70903 6.92165 7.93091 4.37946 10.5004C3.72595 11.1606 3.15407 11.9008 2.67907 12.6997C2.60642 12.8227 2.47673 12.8911 2.34353 12.8911Z" fill="#8C8C8C"/>
</g>
</g>
</svg>
