<svg width="30" height="30" viewBox="0 0 30 30" fill="none" xmlns="http://www.w3.org/2000/svg">
<g id="Facebook 1" clip-path="url(#clip0_1009_63)">
<g id="Facebook">
<path id="Background" d="M0 14.4C0 7.61163 -1.99606e-06 4.21395 2.10837 2.10837C4.21674 0.00279063 7.61162 0 14.4 0H15.6C22.3884 0 25.786 0 27.8916 2.10837C29.9972 4.21674 30 7.61163 30 14.4V15.6C30 22.3884 30 25.786 27.8916 27.8916C25.7833 29.9972 22.3884 30 15.6 30H14.4C7.61162 30 4.21395 30 2.10837 27.8916C0.00278863 25.7833 0 22.3884 0 15.6V14.4Z" fill="#1877F2"/>
<path id="Facebook_2" d="M16.2618 16.3636H18.9758L19.4865 12.9771H16.2618V10.7864C16.2618 9.85984 16.7125 8.95845 18.1567 8.95845H19.6232V6.07845C18.763 5.93847 17.8937 5.86198 17.0223 5.84961C14.3711 5.84961 12.6297 7.46961 12.6297 10.4026V12.9771H9.67578V16.3594H12.6297V24.5361H16.2576L16.2618 16.3636Z" fill="white"/>
</g>
</g>
<defs>
<clipPath id="clip0_1009_63">
<rect width="30" height="30" fill="white"/>
</clipPath>
</defs>
</svg>
