<svg width="30" height="30" viewBox="0 0 30 30" fill="none" xmlns="http://www.w3.org/2000/svg">
<g id="Instagram 1" clip-path="url(#clip0_1009_67)">
<g id="Instagram">
<path id="Background" d="M0 14.4C0 7.61163 -1.99606e-06 4.21395 2.10837 2.10837C4.21674 0.00279063 7.61163 0 14.4 0H15.6C22.3884 0 25.786 0 27.8916 2.10837C29.9972 4.21674 30 7.61163 30 14.4V15.6C30 22.3884 30 25.786 27.8916 27.8916C25.7833 29.9972 22.3884 30 15.6 30H14.4C7.61163 30 4.21395 30 2.10837 27.8916C0.00278863 25.7833 0 22.3884 0 15.6V14.4Z" fill="url(#paint0_radial_1009_67)"/>
<path id="Instagram_2" fill-rule="evenodd" clip-rule="evenodd" d="M15.0018 6.63477C17.2735 6.63477 17.5581 6.64453 18.4511 6.685C19.145 6.69908 19.8315 6.83072 20.4814 7.0743C21.0372 7.28881 21.5419 7.61725 21.9632 8.03852C22.3845 8.45978 22.7129 8.96454 22.9274 9.52035C23.171 10.1702 23.3026 10.8567 23.3167 11.5506C23.3572 12.4436 23.367 12.7283 23.367 14.9999C23.367 17.2715 23.3572 17.5562 23.3167 18.4492C23.3026 19.1431 23.171 19.8295 22.9274 20.4794C22.7129 21.0352 22.3845 21.54 21.9632 21.9612C21.5419 22.3825 21.0372 22.711 20.4814 22.9255C19.8315 23.169 19.145 23.3007 18.4511 23.3148C17.5581 23.3552 17.2735 23.365 15.0018 23.365C12.7302 23.365 12.4456 23.3552 11.5525 23.3148C10.8587 23.3007 10.1722 23.169 9.5223 22.9255C8.9665 22.711 8.46174 22.3825 8.04047 21.9612C7.61921 21.54 7.29076 21.0352 7.07626 20.4794C6.83267 19.8295 6.70104 19.1431 6.68695 18.4492C6.64649 17.5562 6.63672 17.2715 6.63672 14.9999C6.63672 12.7283 6.64649 12.4436 6.68695 11.5506C6.70104 10.8567 6.83267 10.1702 7.07626 9.52035C7.29076 8.96454 7.61921 8.45978 8.04047 8.03852C8.46174 7.61725 8.9665 7.28881 9.5223 7.0743C10.1722 6.83072 10.8587 6.69908 11.5525 6.685C12.4456 6.64453 12.7302 6.63477 15.0018 6.63477ZM18.3814 8.19058C17.4995 8.15011 17.2358 8.14174 15.0018 8.14174C12.7679 8.14174 12.5042 8.15011 11.6223 8.19058C11.0914 8.19669 10.5655 8.2944 10.0679 8.47942C9.70727 8.61834 9.37977 8.8313 9.10651 9.10456C8.83325 9.37782 8.62029 9.70531 8.48137 10.0659C8.29636 10.5636 8.19864 11.0894 8.19254 11.6203C8.15207 12.5022 8.1437 12.7659 8.1437 14.9999C8.1437 17.2338 8.15207 17.4976 8.19254 18.3794C8.19864 18.9103 8.29636 19.4362 8.48137 19.9338C8.62029 20.2944 8.83325 20.6219 9.10651 20.8952C9.37977 21.1685 9.70727 21.3814 10.0679 21.5203C10.5655 21.7054 11.0914 21.8031 11.6223 21.8092C12.5042 21.8496 12.7679 21.858 15.0018 21.858C17.2358 21.858 17.4995 21.8496 18.3814 21.8092C18.9123 21.8031 19.4381 21.7054 19.9358 21.5203C20.2964 21.3814 20.6239 21.1685 20.8972 20.8952C21.1704 20.6219 21.3834 20.2944 21.5223 19.9338C21.7073 19.4362 21.805 18.9103 21.8111 18.3794C21.8516 17.4976 21.86 17.2338 21.86 14.9999C21.86 12.7659 21.8516 12.5022 21.8111 11.6203C21.805 11.0894 21.7073 10.5636 21.5223 10.0659C21.3834 9.70531 21.1704 9.37782 20.8972 9.10456C20.6239 8.8313 20.2964 8.61834 19.9358 8.47942C19.4381 8.2944 18.9123 8.19669 18.3814 8.19058ZM15.0018 17.7878C15.5538 17.7878 16.0933 17.6241 16.5523 17.3175C17.0112 17.0108 17.3689 16.575 17.5801 16.065C17.7913 15.5551 17.8466 14.994 17.7389 14.4527C17.6312 13.9113 17.3654 13.4141 16.9752 13.0238C16.5849 12.6335 16.0876 12.3677 15.5463 12.26C15.0049 12.1523 14.4438 12.2076 13.9339 12.4188C13.424 12.63 12.9881 12.9877 12.6815 13.4467C12.3748 13.9056 12.2111 14.4451 12.2111 14.9971C12.2111 15.7372 12.5052 16.4471 13.0285 16.9704C13.5519 17.4938 14.2617 17.7878 15.0018 17.7878ZM15.0018 10.7036C15.8516 10.7036 16.6822 10.9556 17.3887 11.4277C18.0952 11.8997 18.6459 12.5707 18.9711 13.3558C19.2963 14.1408 19.3813 15.0046 19.2156 15.838C19.0498 16.6714 18.6406 17.437 18.0398 18.0378C17.4389 18.6387 16.6734 19.0478 15.84 19.2136C15.0066 19.3794 14.1428 19.2943 13.3577 18.9691C12.5727 18.6439 11.9017 18.0933 11.4296 17.3868C10.9575 16.6802 10.7056 15.8496 10.7056 14.9999C10.7056 14.4357 10.8167 13.877 11.0326 13.3558C11.2485 12.8345 11.565 12.3609 11.9639 11.962C12.7696 11.1562 13.8624 10.7036 15.0018 10.7036ZM20.4716 10.5348C20.4716 10.7335 20.4127 10.9277 20.3023 11.0929C20.1919 11.2581 20.035 11.3869 19.8514 11.4629C19.6678 11.539 19.4658 11.5589 19.271 11.5201C19.0761 11.4813 18.8971 11.3857 18.7566 11.2452C18.6161 11.1047 18.5204 10.9256 18.4816 10.7308C18.4428 10.5359 18.4627 10.3339 18.5388 10.1503C18.6148 9.96673 18.7436 9.80982 18.9088 9.69943C19.074 9.58904 19.2683 9.53011 19.467 9.53011C19.7334 9.53011 19.9889 9.63596 20.1773 9.82437C20.3658 10.0128 20.4716 10.2683 20.4716 10.5348Z" fill="white"/>
</g>
</g>
<defs>
<radialGradient id="paint0_radial_1009_67" cx="0" cy="0" r="1" gradientUnits="userSpaceOnUse" gradientTransform="translate(6.04564 31.1187) rotate(-41.69) scale(49.874 28.4282)">
<stop stop-color="#F9D27A"/>
<stop offset="0.05" stop-color="#F8C871"/>
<stop offset="0.14" stop-color="#F5AD58"/>
<stop offset="0.25" stop-color="#EF8130"/>
<stop offset="0.26" stop-color="#EF7E2D"/>
<stop offset="0.36" stop-color="#F04C3E"/>
<stop offset="0.38" stop-color="#ED4A45"/>
<stop offset="0.49" stop-color="#D43E79"/>
<stop offset="0.55" stop-color="#CA398E"/>
<stop offset="0.7" stop-color="#8D3CC8"/>
<stop offset="0.9" stop-color="#304DF0"/>
</radialGradient>
<clipPath id="clip0_1009_67">
<rect width="30" height="30" fill="white"/>
</clipPath>
</defs>
</svg>
