<svg width="26" height="24" viewBox="0 0 26 24" fill="none" xmlns="http://www.w3.org/2000/svg">
<g id="&#208;&#187;&#208;&#176;&#208;&#185;&#208;&#186;" clip-path="url(#clip0_1115_82)">
<g id="&#208;&#161;&#208;&#187;&#208;&#190;&#208;&#185; 2">
<g id="Objects">
<path id="Vector" d="M25.4719 7.51353C25.5203 7.22767 25.5497 6.93913 25.56 6.64965C25.5876 5.13933 25.0426 3.67152 24.028 2.52345C23.0133 1.37538 21.5993 0.626539 20.053 0.418367C18.5066 0.210195 16.935 0.557106 15.635 1.39357C14.335 2.23004 13.3966 3.49816 12.997 4.95839C12.5788 3.52143 11.6367 2.2797 10.3451 1.46305C9.05345 0.646396 7.49979 0.310119 5.97166 0.516459C4.44352 0.722799 3.04439 1.45778 2.03322 2.58537C1.02205 3.71296 0.467319 5.1568 0.471706 6.64965C0.482024 6.93913 0.511427 7.22767 0.559735 7.51353H0.471706C0.471706 7.51353 1.32056 14.1204 12.997 23.5439C12.997 23.5439 23.8623 15.0268 25.3462 8.04889C25.3462 7.96372 25.3902 7.87246 25.4091 7.78121C25.4279 7.68995 25.4594 7.5987 25.4719 7.51353Z" stroke="white" stroke-width="1.5" stroke-linecap="round" stroke-linejoin="round"/>
</g>
</g>
</g>
<defs>
<clipPath id="clip0_1115_82">
<rect width="26" height="24" fill="white"/>
</clipPath>
</defs>
</svg>
