<svg width="179" height="71" viewBox="0 0 179 71" fill="none" xmlns="http://www.w3.org/2000/svg">
<path fill-rule="evenodd" clip-rule="evenodd" d="M86.5713 56.3747V26.8509L108.56 8.54069L130.549 26.8509V56.3747H86.5713ZM108.56 0L130.549 18.3102V22.427L108.56 4.11673L86.5713 22.427V18.3102L108.56 0Z" fill="#F5F6F8"/>
<path d="M37.1813 32.7807V43.8713C37.1813 46.1755 36.5047 47.9573 35.1823 49.2477C33.7677 50.5994 31.738 51.2753 29.0624 51.2753C26.9404 51.2753 25.1875 50.7223 23.8036 49.5856C22.2351 48.2953 21.4355 46.4827 21.4355 44.1171V32.75H24.0496V43.5641C24.0496 44.6394 24.1111 45.4074 24.2649 45.899C24.4186 46.3905 24.6954 46.8513 25.1567 47.3122C26.2023 48.3567 27.494 48.879 29.0932 48.879C30.0158 48.879 30.8461 48.7561 31.6149 48.4796C32.353 48.2031 32.9373 47.8652 33.3986 47.4351C33.8292 47.005 34.1367 46.452 34.3212 45.7761C34.5058 45.1002 34.5673 44.3322 34.5673 43.4105V32.7807H37.1813Z" fill="#787179"/>
<path d="M51.4505 33.8249V36.805C50.7124 36.0984 50.0051 35.6068 49.267 35.3303C48.5597 35.0538 47.8524 34.9002 47.145 34.9002C46.2839 34.9002 45.5766 35.0845 45.0538 35.4839C44.531 35.8833 44.2542 36.4056 44.2542 37.0507C44.2542 37.9724 44.9308 38.8633 46.2839 39.6928C48.775 41.2596 50.0666 42.0277 50.0974 42.0891C51.4813 43.2566 52.1579 44.6698 52.1579 46.3288C52.1579 47.7727 51.6658 48.9708 50.7124 49.8925C49.7591 50.8142 48.529 51.275 47.022 51.275C45.1153 51.275 43.3931 50.722 41.8862 49.5853V46.2673C43.2701 48.0492 44.8693 48.9094 46.7145 48.9094C47.6679 48.9094 48.4059 48.6636 48.9287 48.2028C49.4516 47.742 49.6976 47.189 49.6976 46.6053C49.6976 45.5914 49.021 44.6083 47.6679 43.656C46.407 42.8265 45.1153 41.997 43.8544 41.1675C42.4705 40.0615 41.7939 38.8019 41.7939 37.3887C41.7939 35.8833 42.286 34.6852 43.3009 33.8249C44.3157 32.9647 45.6381 32.5039 47.3603 32.5039C48.8057 32.5039 50.1589 32.934 51.4505 33.7942V33.8249Z" fill="#787179"/>
<path d="M70.7942 32.7803V35.1459H64.459V51.0598H61.845V35.1459H55.5098V32.7803H70.7942Z" fill="#787179"/>
<path d="M72.7012 41.9048C72.7012 39.2934 73.593 37.1122 75.3767 35.2996C77.2219 33.4563 79.6207 32.5039 82.5115 32.5039C85.4639 32.5039 87.8626 33.4256 89.7078 35.2689C91.4915 37.0507 92.3526 39.232 92.3526 41.8741C92.3526 44.4547 91.4915 46.636 89.7386 48.4178C87.8934 50.3226 85.4639 51.2443 82.4808 51.2443C79.5592 51.2443 77.1912 50.2919 75.346 48.4178C73.593 46.636 72.7319 44.4547 72.7319 41.8434L72.7012 41.9048ZM75.4075 41.9048C75.4075 43.9017 76.0841 45.5607 77.4065 46.8818C78.7596 48.2028 80.451 48.8787 82.5115 48.8787C84.5413 48.8787 86.2635 48.2028 87.6166 46.8818C88.9698 45.5607 89.6463 43.9017 89.6463 41.9048C89.6463 39.8772 88.9698 38.2182 87.6166 36.8971C86.2635 35.5761 84.572 34.9309 82.5115 34.9309C80.4818 34.9309 78.7904 35.5761 77.4372 36.8971C76.0841 38.2182 75.4075 39.8772 75.4075 41.9048Z" fill="#787179"/>
<path d="M112.773 32.7803V51.0598H110.128V36.8356L104.408 43.9016H103.978L98.3191 36.8356L98.2884 51.0598H95.6436V32.7803H98.1038L104.193 40.2764L110.313 32.7803H112.773Z" fill="#787179"/>
<path fill-rule="evenodd" clip-rule="evenodd" d="M121.476 32.7807V51.0602H118.862V36.836L113.173 43.902H112.742L108.621 38.71L110.159 36.836L112.988 40.3076L119.078 32.8114H121.507L121.476 32.7807ZM107.084 40.5841L107.053 51.0295H104.439V43.8713L107.115 40.5534L107.084 40.5841ZM104.408 40.0004V32.75H106.869L108.591 34.8698L104.408 40.0004Z" fill="#BCCC69"/>
<path d="M135.069 32.6885L143.25 51.0602H140.574L138.145 45.6838H130.364L128.057 51.0602H125.382L133.255 32.6885H135.1H135.069ZM134.116 36.713L131.379 43.3183H137.068L134.116 36.713Z" fill="#BCCC69"/>
<path d="M145.771 51.0598V32.7803H152.876C156.012 32.7803 158.503 33.7634 160.287 35.7296C161.856 37.45 162.624 39.5084 162.624 41.9047C162.624 44.3624 161.763 46.4822 160.041 48.2334C158.196 50.1074 155.828 51.0598 152.906 51.0598H145.771ZM148.386 35.1459V48.6942H152.568C155.182 48.6942 157.15 47.834 158.473 46.1443C159.426 44.9154 159.887 43.5022 159.887 41.9047C159.887 39.9385 159.303 38.3409 158.104 37.1428C156.781 35.791 154.905 35.1459 152.445 35.1459H148.386Z" fill="#BCCC69"/>
<path d="M16.3301 34.0396V36.866C14.1466 35.6064 12.0554 34.9613 10.0256 34.9613C7.93439 34.9613 6.18145 35.6372 4.79754 36.9582C3.41363 38.2793 2.7063 39.969 2.7063 41.9659C2.7063 44.0242 3.38288 45.6832 4.73603 46.9736C6.08919 48.2639 7.87289 48.909 10.0871 48.909C12.2091 48.909 14.3311 48.2331 16.4839 46.8507V49.7078C15.469 50.2301 14.4541 50.6295 13.4393 50.906C12.3936 51.1824 11.225 51.3361 9.87186 51.3361C6.73501 51.3361 4.21322 50.2915 2.36802 48.2331C0.79959 46.4513 0 44.4544 0 42.2424C0 39.4467 0.953357 37.1425 2.82932 35.33C4.70528 33.5174 7.10405 32.5957 10.0256 32.5957C11.8093 32.5957 13.9006 33.0873 16.2993 34.1011L16.3301 34.0396Z" fill="#787179"/>
<path d="M178.309 32.7803V35.1459H170.559V40.6451H178.032V43.0107H170.559V48.6942H178.555V51.0598H167.914V32.7803H178.309Z" fill="#BCCC69"/>
<path d="M11.5939 62.7955V63.8093C11.3171 63.6249 11.0711 63.5021 10.7943 63.4099C10.5482 63.3177 10.3022 63.287 10.1177 63.287C9.90243 63.287 9.74866 63.3177 9.62565 63.4099C9.50263 63.5021 9.44113 63.5942 9.44113 63.7478C9.44113 63.8707 9.53339 63.9936 9.71791 64.1472C9.90243 64.3008 10.21 64.5159 10.702 64.7924C11.1326 65.0689 11.4401 65.3146 11.5939 65.5297C11.7784 65.7448 11.8399 65.9598 11.8399 66.2363C11.8399 66.6971 11.6861 67.0351 11.3786 67.3116C11.0711 67.5881 10.6713 67.7417 10.1792 67.7417C9.84092 67.7417 9.56414 67.711 9.28736 67.6495C9.01058 67.5881 8.7338 67.4652 8.39551 67.2809V66.1749C9.04133 66.6357 9.59489 66.8507 10.0562 66.8507C10.2715 66.8507 10.456 66.7893 10.579 66.6971C10.7328 66.605 10.7943 66.4514 10.7943 66.267C10.7943 66.0827 10.3945 65.7448 9.59489 65.2839C8.7953 64.8231 8.39551 64.3315 8.39551 63.8093C8.39551 63.3792 8.54928 63.0412 8.85681 62.7955C9.16434 62.5497 9.56414 62.4268 10.0869 62.4268C10.5482 62.4268 11.0711 62.5804 11.5939 62.8569V62.7955ZM17.3448 61.413V62.4575H18.9747V63.3792H17.3448V65.9905C17.3448 66.267 17.437 66.4821 17.5908 66.605C17.7138 66.6971 17.8676 66.7586 18.0828 66.7586C18.4519 66.7586 18.8209 66.6357 19.2207 66.3899V67.3423C18.7902 67.5573 18.3904 67.6802 17.9906 67.6802C17.4678 67.6802 17.0372 67.5266 16.7604 67.2501C16.4837 66.9429 16.3299 66.5742 16.3299 66.0827V63.3792H15.438V63.2563L17.3448 61.413ZM27.3704 67.5881H26.3555V66.9429C26.1403 67.158 25.8942 67.3423 25.6174 67.4959C25.3407 67.6188 25.0946 67.711 24.8179 67.711C24.2643 67.711 23.8645 67.5266 23.5262 67.1887C23.2187 66.82 23.0342 66.3285 23.0342 65.6833V62.519H24.049V65.7755C24.049 66.5128 24.3873 66.9122 25.0946 66.9122C25.5559 66.9122 25.9865 66.6664 26.3248 66.2056V62.5497H27.3396V67.6495L27.3704 67.5881ZM36.3812 59.8154V67.5881H34.2284C33.4596 67.5881 32.8753 67.3423 32.414 66.8815C31.9527 66.3899 31.7374 65.7448 31.7374 64.9153C31.7374 64.1779 31.9834 63.5635 32.4447 63.1027C32.9368 62.6111 33.5211 62.3961 34.2899 62.3961C34.4744 62.3961 34.6282 62.4268 34.8127 62.4268C34.9665 62.4575 35.151 62.519 35.3663 62.5804V59.8154H36.3812ZM35.3663 66.7279V63.4713C35.1818 63.4099 35.028 63.3484 34.905 63.3177C34.7512 63.287 34.5975 63.287 34.4437 63.287C33.9516 63.287 33.5518 63.4406 33.2443 63.7786C32.9368 64.1165 32.783 64.5466 32.783 65.0689C32.783 65.5911 32.906 65.9905 33.1213 66.267C33.3673 66.5742 33.7979 66.7586 34.3514 66.7586H35.3663V66.7279ZM41.9475 62.4575V67.5573H40.9327V62.4575H41.9475ZM42.0398 60.9214C42.0398 61.075 41.9783 61.2286 41.8553 61.3515C41.7323 61.4744 41.6092 61.5359 41.4247 61.5359C41.271 61.5359 41.1172 61.4744 40.9942 61.3515C40.8712 61.2286 40.8097 61.1057 40.8097 60.9214C40.8097 60.7678 40.8712 60.6142 40.9942 60.4913C41.1172 60.3684 41.2402 60.307 41.4247 60.307C41.5785 60.307 41.7323 60.3684 41.8553 60.4913C41.9783 60.6142 42.0398 60.7371 42.0398 60.9214ZM48.9286 62.3653C49.7282 62.3653 50.4047 62.6111 50.9275 63.1027C51.4503 63.5942 51.6964 64.2087 51.6964 64.9767C51.6964 65.7755 51.4503 66.4206 50.9275 66.9429C50.4047 67.4345 49.7589 67.6802 48.9286 67.6802C48.1597 67.6802 47.5139 67.4345 46.9911 66.9122C46.4683 66.3899 46.2223 65.7448 46.2223 64.9767C46.2223 64.2394 46.4683 63.6249 46.9911 63.1334C47.5139 62.6418 48.1597 62.3961 48.9286 62.3961V62.3653ZM48.9286 63.287C48.4365 63.287 48.0675 63.4406 47.7292 63.7786C47.4216 64.0858 47.2679 64.5159 47.2679 65.0074C47.2679 65.5604 47.4216 65.9905 47.7292 66.3285C48.0367 66.6664 48.4365 66.82 48.9286 66.82C49.4821 66.82 49.8819 66.6664 50.2202 66.3285C50.5277 66.0213 50.6815 65.5604 50.6815 65.0074C50.6815 64.5159 50.5277 64.0858 50.1895 63.7786C49.8512 63.4713 49.4514 63.287 48.9286 63.287ZM63.3519 62.4882V67.5881H62.3371V62.4882H63.3519ZM63.4442 60.9521C63.4442 61.1057 63.3827 61.2594 63.2597 61.3822C63.1367 61.5051 63.0136 61.5666 62.8291 61.5666C62.6754 61.5666 62.5216 61.5051 62.3986 61.3822C62.2756 61.2594 62.2141 61.1365 62.2141 60.9521C62.2141 60.7985 62.2756 60.6449 62.3986 60.522C62.5216 60.3991 62.6446 60.3377 62.8291 60.3377C62.9829 60.3377 63.1367 60.3991 63.2597 60.522C63.3827 60.6449 63.4442 60.7678 63.4442 60.9521ZM68.9491 62.4882V63.1641C69.3796 62.6418 69.9024 62.3961 70.4867 62.3961C71.0095 62.3961 71.4093 62.5497 71.7169 62.8876C72.0552 63.2563 72.2397 63.7786 72.2397 64.4544V67.6188H71.2248V64.4544C71.2248 64.0858 71.1326 63.7786 70.948 63.5635C70.7635 63.3484 70.5175 63.2256 70.21 63.2256C69.9639 63.2256 69.7794 63.287 69.5949 63.3792C69.4104 63.4713 69.1951 63.6864 68.9491 63.9629V67.6188H67.9342V62.519H68.9491V62.4882ZM77.9906 61.4437V62.4882H79.6205V63.4099H77.9906V66.0213C77.9906 66.2978 78.0828 66.5128 78.2366 66.6357C78.3596 66.7279 78.5134 66.7893 78.7287 66.7893C79.0977 66.7893 79.4667 66.6664 79.8665 66.4206V67.373C79.436 67.5881 79.0362 67.711 78.6364 67.711C78.1136 67.711 77.683 67.5573 77.4063 67.2809C77.1295 66.9736 76.9757 66.605 76.9757 66.1134V63.4099H76.0839V63.287L77.9906 61.4437ZM88.0162 66.1441V67.1272C87.7087 67.3423 87.3704 67.4959 87.0629 67.5881C86.7553 67.6802 86.3863 67.7417 85.9557 67.7417C85.1869 67.7417 84.5718 67.4652 84.1105 66.9122C83.68 66.3899 83.4647 65.7755 83.4647 65.0074C83.4647 64.2394 83.68 63.5942 84.1105 63.1334C84.5411 62.6418 85.1254 62.4268 85.8327 62.4268C86.5093 62.4268 87.0629 62.6726 87.4626 63.1334C87.8624 63.5942 88.047 64.3008 88.047 65.2225H84.4488C84.6026 66.2363 85.1869 66.7586 86.171 66.7586C86.4785 66.7586 86.7553 66.6971 87.0629 66.605C87.3704 66.5128 87.6472 66.3592 87.9547 66.1441H88.0162ZM84.5411 64.5466H87.1244C87.1244 64.1779 87.0013 63.8707 86.7861 63.6249C86.5708 63.3792 86.294 63.287 85.925 63.287C85.1561 63.287 84.6948 63.7171 84.5411 64.5466ZM92.4447 62.519H93.4596V63.6864C93.9824 62.8262 94.4744 62.3961 94.9665 62.3961C95.3663 62.3961 95.7661 62.5804 96.1966 62.9798L95.6738 63.8707C95.5201 63.7171 95.3355 63.5942 95.1818 63.5021C95.028 63.4099 94.8742 63.3792 94.7205 63.3792C94.3822 63.3792 94.0746 63.5328 93.8286 63.84C93.5826 64.1472 93.4596 64.5159 93.4596 64.946V67.6188H92.4447V62.519ZM101.086 62.519V67.6188H100.072V62.519H101.086ZM101.179 60.9829C101.179 61.1365 101.117 61.2901 100.994 61.413C100.871 61.5359 100.748 61.5973 100.564 61.5973C100.41 61.5973 100.256 61.5359 100.133 61.413C100.01 61.2901 99.9486 61.1672 99.9486 60.9829C99.9486 60.8293 100.01 60.6756 100.133 60.5528C100.256 60.4299 100.379 60.3684 100.564 60.3684C100.717 60.3684 100.871 60.4299 100.994 60.5528C101.117 60.6756 101.179 60.7985 101.179 60.9829ZM108.067 62.4268C108.867 62.4268 109.544 62.6726 110.066 63.1641C110.589 63.6557 110.835 64.2701 110.835 65.0382C110.835 65.8369 110.589 66.4821 110.066 67.0044C109.544 67.4959 108.898 67.7417 108.067 67.7417C107.299 67.7417 106.653 67.4959 106.13 66.9736C105.607 66.4514 105.361 65.8062 105.361 65.0382C105.361 64.3008 105.607 63.6864 106.13 63.1948C106.653 62.7033 107.299 62.4575 108.067 62.4575V62.4268ZM108.067 63.3484C107.575 63.3484 107.206 63.5021 106.868 63.84C106.561 64.1472 106.407 64.5773 106.407 65.0689C106.407 65.6219 106.561 66.052 106.868 66.3899C107.176 66.7279 107.575 66.8815 108.067 66.8815C108.621 66.8815 109.021 66.7279 109.359 66.3899C109.667 66.0827 109.82 65.6219 109.82 65.0689C109.82 64.5773 109.667 64.1472 109.328 63.84C108.99 63.5328 108.59 63.3484 108.067 63.3484ZM115.202 62.5497H116.217V63.7171C116.74 62.8569 117.232 62.4268 117.724 62.4268C118.124 62.4268 118.524 62.6111 118.954 63.0105L118.431 63.9014C118.278 63.7478 118.093 63.6249 117.939 63.5328C117.786 63.4406 117.632 63.4099 117.478 63.4099C117.14 63.4099 116.832 63.5635 116.586 63.8707C116.34 64.1779 116.217 64.5466 116.217 64.9767V67.6495H115.202V62.5497ZM133.562 59.9076V67.6802H131.409C130.641 67.6802 130.056 67.4345 129.595 66.9736C129.134 66.4821 128.918 65.8369 128.918 65.0074C128.918 64.2701 129.164 63.6557 129.626 63.1948C130.118 62.7033 130.702 62.4882 131.471 62.4882C131.655 62.4882 131.809 62.519 131.994 62.519C132.147 62.5497 132.332 62.6111 132.547 62.6726V59.9076H133.562ZM132.547 66.82V63.5635C132.363 63.5021 132.209 63.4406 132.086 63.4099C131.932 63.3792 131.778 63.3792 131.625 63.3792C131.133 63.3792 130.733 63.5328 130.425 63.8707C130.118 64.2087 129.964 64.6388 129.964 65.161C129.964 65.6833 130.087 66.0827 130.302 66.3592C130.548 66.6664 130.979 66.8507 131.532 66.8507H132.547V66.82ZM142.388 66.2056V67.1887C142.081 67.4037 141.743 67.5573 141.435 67.6495C141.127 67.7417 140.758 67.8031 140.328 67.8031C139.559 67.8031 138.944 67.5266 138.483 66.9736C138.052 66.4514 137.837 65.8369 137.837 65.0689C137.837 64.3008 138.052 63.6557 138.483 63.1948C138.913 62.7033 139.497 62.4882 140.205 62.4882C140.881 62.4882 141.435 62.734 141.835 63.1948C142.235 63.6557 142.419 64.3623 142.419 65.2839H138.821C138.975 66.2978 139.559 66.82 140.543 66.82C140.851 66.82 141.127 66.7586 141.435 66.6664C141.743 66.5742 142.019 66.4206 142.327 66.2056H142.388ZM138.913 64.608H141.496C141.496 64.2394 141.373 63.9322 141.158 63.6864C140.943 63.4406 140.666 63.3484 140.297 63.3484C139.528 63.3484 139.067 63.7786 138.913 64.608ZM149.708 62.8876V63.9014C149.431 63.7171 149.185 63.5942 148.908 63.5021C148.662 63.4099 148.416 63.3792 148.231 63.3792C148.016 63.3792 147.862 63.4099 147.739 63.5021C147.616 63.5942 147.555 63.6864 147.555 63.84C147.555 63.9629 147.647 64.0858 147.832 64.2394C148.016 64.393 148.324 64.608 148.816 64.8845C149.246 65.161 149.554 65.4068 149.708 65.6219C149.892 65.8369 149.954 66.052 149.954 66.3285C149.954 66.7893 149.8 67.1272 149.492 67.4037C149.185 67.6802 148.785 67.8338 148.293 67.8338C147.955 67.8338 147.678 67.8031 147.401 67.7417C147.124 67.6802 146.848 67.5573 146.509 67.373V66.267C147.155 66.7279 147.709 66.9429 148.17 66.9429C148.385 66.9429 148.57 66.8815 148.693 66.7893C148.847 66.6971 148.908 66.5435 148.908 66.3592C148.908 66.1749 148.508 65.8369 147.709 65.3761C146.909 64.9153 146.509 64.4237 146.509 63.9014C146.509 63.4713 146.663 63.1334 146.971 62.8876C147.278 62.6418 147.678 62.519 148.201 62.519C148.662 62.519 149.185 62.6726 149.708 62.9491V62.8876ZM155.305 62.5804V67.6802H154.29V62.5804H155.305ZM155.397 61.0443C155.397 61.1979 155.336 61.3515 155.213 61.4744C155.09 61.5973 154.966 61.6587 154.782 61.6587C154.628 61.6587 154.474 61.5973 154.351 61.4744C154.228 61.3515 154.167 61.2286 154.167 61.0443C154.167 60.8907 154.228 60.7371 154.351 60.6142C154.474 60.4913 154.597 60.4299 154.782 60.4299C154.936 60.4299 155.09 60.4913 155.213 60.6142C155.336 60.7371 155.397 60.86 155.397 61.0443ZM163.977 62.5804V63.3792H162.962C163.147 63.5635 163.301 63.7478 163.362 63.9322C163.454 64.1165 163.485 64.3008 163.485 64.5159C163.485 64.7002 163.424 64.9153 163.331 65.1303C163.239 65.3454 163.116 65.5297 162.993 65.6526C162.778 65.8984 162.347 66.052 161.701 66.1749C161.179 66.267 160.902 66.4206 160.902 66.605C160.902 66.8507 161.425 67.0658 162.47 67.2501C162.993 67.3423 163.362 67.5266 163.608 67.8031C163.823 68.0489 163.946 68.3254 163.946 68.6941C163.946 69.2163 163.731 69.6157 163.301 69.8922C162.87 70.1687 162.286 70.3223 161.517 70.3223C160.84 70.3223 160.256 70.1687 159.826 69.8922C159.395 69.6157 159.18 69.2471 159.18 68.7862C159.18 68.0489 159.61 67.5881 160.471 67.373C160.133 67.158 159.949 66.9429 159.949 66.7279C159.949 66.5742 160.01 66.4206 160.164 66.2978C160.318 66.1749 160.502 66.0827 160.748 66.0213C160.348 65.8369 160.072 65.5911 159.887 65.3454C159.703 65.0689 159.61 64.7617 159.61 64.393C159.61 63.84 159.795 63.4099 160.195 63.1027C160.594 62.7955 161.148 62.6418 161.825 62.6418H163.916L163.977 62.5804ZM162.563 64.3623C162.563 64.1165 162.47 63.9014 162.286 63.7171C162.101 63.5328 161.855 63.4406 161.578 63.4406C161.302 63.4406 161.056 63.5328 160.871 63.7171C160.687 63.9014 160.564 64.1165 160.564 64.3623C160.564 64.6388 160.656 64.8538 160.84 65.0382C161.025 65.2225 161.271 65.2839 161.578 65.2839C161.855 65.2839 162.101 65.1918 162.286 65.0074C162.47 64.8231 162.563 64.608 162.563 64.3008V64.3623ZM162.993 68.7555C162.993 68.479 162.778 68.264 162.378 68.1103C162.071 67.9875 161.701 67.926 161.302 67.926C160.963 67.926 160.687 67.9875 160.471 68.1411C160.256 68.2947 160.133 68.479 160.133 68.6941C160.133 69.2163 160.594 69.4928 161.548 69.4928C162.009 69.4928 162.347 69.4314 162.593 69.3085C162.839 69.1856 162.962 69.0013 162.962 68.7555H162.993ZM168.929 62.5804V63.2563C169.359 62.734 169.882 62.4882 170.466 62.4882C170.989 62.4882 171.389 62.6418 171.696 62.9798C172.035 63.3484 172.219 63.8707 172.219 64.5466V67.711H171.204V64.5466C171.204 64.1779 171.112 63.8707 170.928 63.6557C170.743 63.4406 170.497 63.3177 170.189 63.3177C169.943 63.3177 169.759 63.3792 169.574 63.4713C169.39 63.5635 169.175 63.7786 168.929 64.0551V67.711H167.914V62.6111H168.929V62.5804Z" fill="#949599"/>
<path fill-rule="evenodd" clip-rule="evenodd" d="M108.56 17.2656V20.2456L95.459 31.4284H91.9531L108.56 17.2656Z" fill="#BCCC69"/>
<path fill-rule="evenodd" clip-rule="evenodd" d="M108.56 17.2656L125.166 31.4284H121.691L108.56 20.2456V17.2656Z" fill="#787179"/>
</svg>
