<svg width="30" height="30" viewBox="0 0 30 30" fill="none" xmlns="http://www.w3.org/2000/svg">
<g id="Mail.ru" clip-path="url(#clip0_1009_100)">
<g id="Mail.ru_2">
<path id="Background" d="M0 14.4C0 7.61163 -1.99606e-06 4.21395 2.10837 2.10837C4.21674 0.00278863 7.61163 0 14.4 0H15.6C22.3884 0 25.786 -1.99606e-06 27.8916 2.10837C29.9972 4.21674 30 7.61163 30 14.4V15.6C30 22.3884 30 25.786 27.8916 27.8916C25.7833 29.9972 22.3884 30 15.6 30H14.4C7.61163 30 4.21395 30 2.10837 27.8916C0.00278863 25.7833 0 22.3884 0 15.6V14.4Z" fill="#FC2C38"/>
<path id="Mail.ru_3" d="M23.9064 15.0133C23.9064 18.0454 22.4874 19.4645 20.6971 19.4645C20.2071 19.4651 19.725 19.341 19.2962 19.104C18.8673 18.867 18.5058 18.5248 18.2455 18.1096C17.5266 18.8415 16.5758 19.301 15.5556 19.4094C14.5354 19.5179 13.5093 19.2685 12.6526 18.7041C11.7959 18.1396 11.1619 17.2951 10.8591 16.3149C10.5562 15.3347 10.6032 14.2797 10.9921 13.3304C11.381 12.381 12.0876 11.5963 12.9911 11.1103C13.8946 10.6243 14.9389 10.4672 15.9454 10.666C16.9518 10.8648 17.858 11.407 18.5089 12.2C19.1598 12.993 19.5151 13.9874 19.5139 15.0133V16.4533C19.5139 17.1845 20.0301 17.7008 20.6971 17.7008C21.4925 17.7008 22.1385 17.0352 22.1385 15.0133C22.1468 13.4369 21.6296 11.9027 20.6685 10.653C19.7075 9.4034 18.3575 8.50964 16.8317 8.11298C15.306 7.71631 13.6916 7.83936 12.2436 8.46269C10.7956 9.08602 9.59664 10.1741 8.8361 11.5549C8.07555 12.9358 7.79683 14.5307 8.04396 16.0877C8.2911 17.6446 9.05001 19.0748 10.2008 20.1523C11.3515 21.2298 12.8285 21.8931 14.3983 22.0374C15.9681 22.1817 17.5413 21.7988 18.8692 20.9492L20.0301 22.2817C18.5693 23.2811 16.8396 23.8134 15.0697 23.8082C13.3256 23.8041 11.6219 23.2828 10.1741 22.3102C8.72628 21.3377 7.59944 19.9576 6.93608 18.3446C6.27273 16.7315 6.10266 14.958 6.44739 13.2483C6.79211 11.5386 7.63615 9.96953 8.87274 8.73958C10.1093 7.50963 11.6829 6.67404 13.3945 6.33852C15.106 6.003 16.8786 6.18262 18.488 6.85465C20.0975 7.52667 21.4715 8.66093 22.4362 10.1139C23.4009 11.5669 23.9131 13.2734 23.9078 15.0175L23.9064 15.0133ZM15.0892 17.7008C15.6211 17.7011 16.1412 17.5436 16.5836 17.2482C17.026 16.9529 17.3708 16.5329 17.5745 16.0416C17.7782 15.5502 17.8316 15.0094 17.7279 14.4877C17.6241 13.966 17.368 13.4868 16.9919 13.1107C16.6158 12.7345 16.1365 12.4784 15.6148 12.3747C15.0931 12.271 14.5524 12.3244 14.061 12.5281C13.5696 12.7317 13.1497 13.0766 12.8543 13.519C12.559 13.9614 12.4015 14.4814 12.4018 15.0133C12.4021 15.726 12.6854 16.4093 13.1893 16.9132C13.6932 17.4172 14.3766 17.7004 15.0892 17.7008Z" fill="white"/>
</g>
</g>
<defs>
<clipPath id="clip0_1009_100">
<rect width="30" height="30" fill="white"/>
</clipPath>
</defs>
</svg>
