<svg width="30" height="30" viewBox="0 0 30 30" fill="none" xmlns="http://www.w3.org/2000/svg">
<g id="Ok" clip-path="url(#clip0_1009_71)">
<g id="Ok_2">
<path id="Background" d="M0 14.4C0 7.61163 -1.99606e-06 4.21395 2.10837 2.10837C4.21674 0.00278863 7.61163 0 14.4 0H15.6C22.3884 0 25.786 -1.99606e-06 27.8916 2.10837C29.9972 4.21674 30 7.61163 30 14.4V15.6C30 22.3884 30 25.786 27.8916 27.8916C25.7833 29.9972 22.3884 30 15.6 30H14.4C7.61163 30 4.21395 30 2.10837 27.8916C0.00278863 25.7833 0 22.3884 0 15.6V14.4Z" fill="#EE8208"/>
<g id="Ok_3">
<path id="Ok_4" d="M14.9933 15.5003C15.8982 15.5003 16.7828 15.232 17.5352 14.7292C18.2877 14.2265 18.8741 13.5119 19.2204 12.6759C19.5667 11.8398 19.6573 10.9199 19.4807 10.0324C19.3042 9.14482 18.8685 8.32957 18.2286 7.6897C17.5887 7.04982 16.7735 6.61407 15.8859 6.43753C14.9984 6.26099 14.0784 6.35159 13.2424 6.69789C12.4064 7.04418 11.6918 7.63062 11.1891 8.38304C10.6863 9.13545 10.418 10.02 10.418 10.925C10.4198 12.1378 10.9025 13.3005 11.7601 14.1582C12.6177 15.0158 13.7804 15.4985 14.9933 15.5003ZM14.9933 9.02589C15.369 9.02561 15.7363 9.13675 16.0488 9.34526C16.3612 9.55376 16.6049 9.85027 16.7488 10.1973C16.8928 10.5442 16.9306 10.9261 16.8575 11.2946C16.7843 11.6631 16.6036 12.0016 16.3381 12.2673C16.0725 12.533 15.7341 12.714 15.3657 12.7874C14.9973 12.8608 14.6154 12.8233 14.2683 12.6796C13.9212 12.5359 13.6245 12.2925 13.4158 11.9802C13.2071 11.6678 13.0956 11.3006 13.0956 10.925C13.0956 10.4215 13.2955 9.93871 13.6514 9.58261C14.0072 9.2265 14.4899 9.02626 14.9933 9.02589Z" fill="white"/>
<path id="Ok_5" d="M16.8507 19.2265C17.7948 19.0116 18.6955 18.6379 19.5144 18.1214C19.6688 18.0296 19.8033 17.9079 19.91 17.7634C20.0167 17.6189 20.0934 17.4545 20.1356 17.2799C20.1778 17.1053 20.1846 16.924 20.1556 16.7468C20.1267 16.5695 20.0626 16.3998 19.9671 16.2477C19.8715 16.0955 19.7466 15.9641 19.5995 15.861C19.4524 15.7579 19.2861 15.6853 19.1105 15.6474C18.9349 15.6096 18.7536 15.6072 18.577 15.6405C18.4005 15.6738 18.2325 15.7421 18.0828 15.8414C17.1583 16.4172 16.091 16.7225 15.0018 16.7225C13.9127 16.7225 12.8454 16.4172 11.9209 15.8414C11.6188 15.6619 11.2586 15.6077 10.917 15.6902C10.5755 15.7727 10.2797 15.9854 10.0929 16.283C9.90604 16.5806 9.84292 16.9394 9.91698 17.2829C9.99104 17.6263 10.1964 17.9272 10.4893 18.1214C11.307 18.6403 12.2081 19.0142 13.153 19.2265L10.5897 21.7911C10.465 21.9157 10.3661 22.0636 10.2986 22.2264C10.2311 22.3892 10.1963 22.5637 10.1963 22.74C10.1963 22.9162 10.2311 23.0908 10.2986 23.2536C10.3661 23.4164 10.465 23.5643 10.5897 23.6888C10.8435 23.9377 11.1832 24.0796 11.5386 24.0851C11.7153 24.0866 11.8905 24.0523 12.0536 23.9842C12.2167 23.9161 12.3643 23.8156 12.4874 23.6888L15.0088 21.1674L17.5302 23.6888C17.7819 23.9407 18.1232 24.0822 18.4792 24.0823C18.8353 24.0825 19.1767 23.9412 19.4286 23.6895C19.6804 23.4379 19.822 23.0965 19.8221 22.7405C19.8222 22.3845 19.6809 22.043 19.4293 21.7911L16.8507 19.2265Z" fill="white"/>
</g>
</g>
</g>
<defs>
<clipPath id="clip0_1009_71">
<rect width="30" height="30" fill="white"/>
</clipPath>
</defs>
</svg>
