<svg width="15" height="16" viewBox="0 0 15 16" fill="none" xmlns="http://www.w3.org/2000/svg">
<path id="path64" d="M7.49997 -0.000278473C3.35787 -0.000278473 0 3.37385 0 7.53599C0 10.7287 1.97686 13.4581 4.76679 14.5562C4.70125 13.9599 4.64199 13.0429 4.79279 12.392C4.92909 11.8038 5.67225 8.64594 5.67225 8.64594C5.67225 8.64594 5.44792 8.19447 5.44792 7.52704C5.44792 6.47912 6.05238 5.69678 6.80501 5.69678C7.44488 5.69678 7.75394 6.1795 7.75394 6.75835C7.75394 7.40497 7.34424 8.37171 7.13282 9.2676C6.95612 10.0177 7.50716 10.6294 8.24344 10.6294C9.57643 10.6294 10.6011 9.21706 10.6011 7.17837C10.6011 5.37393 9.31078 4.11232 7.46831 4.11232C5.3343 4.11232 4.08173 5.72068 4.08173 7.38285C4.08173 8.03058 4.33004 8.72513 4.6399 9.10271C4.70119 9.17734 4.71017 9.2427 4.69191 9.31887C4.63498 9.5569 4.50845 10.0688 4.48362 10.1736C4.45091 10.3115 4.37492 10.3408 4.23278 10.2743C3.29608 9.83619 2.71043 8.46005 2.71043 7.35474C2.71043 4.97745 4.42939 2.79419 7.66596 2.79419C10.2677 2.79419 12.2896 4.65713 12.2896 7.1468C12.2896 9.74408 10.6598 11.8344 8.39775 11.8344C7.63774 11.8344 6.92329 11.4376 6.67873 10.969C6.67873 10.969 6.30266 12.4079 6.21149 12.7605C6.04217 13.4151 5.58508 14.2356 5.27934 14.7362C5.98106 14.9545 6.72681 15.0723 7.49997 15.0723C11.6421 15.0723 15 11.6981 15 7.53599C15 3.37385 11.6421 -0.000278473 7.49997 -0.000278473Z" fill="#707070"/>
</svg>
