<svg width="30" height="30" viewBox="0 0 30 30" fill="none" xmlns="http://www.w3.org/2000/svg">
<g id="Pinterest" clip-path="url(#clip0_1009_77)">
<g id="Pinterest_2">
<path id="Background" d="M0 14.4C0 7.61163 0 4.21395 2.10837 2.10837C4.21674 0.00278863 7.61163 0 14.4 0H15.6C22.3884 0 25.786 -1.99606e-06 27.8916 2.10837C29.9972 4.21674 30 7.61163 30 14.4V15.6C30 22.3884 30 25.786 27.8916 27.8916C25.7833 29.9972 22.3884 30 15.6 30H14.4C7.61163 30 4.21395 30 2.10837 27.8916C0.00279063 25.7833 0 22.3884 0 15.6V14.4Z" fill="#E60023"/>
<path id="Pinterest_3" d="M15.251 7.4043C10.6659 7.4043 8.28125 10.4615 8.28125 13.8229C8.28125 15.3815 9.0766 17.3113 10.4217 17.9183C10.6045 18.041 10.7273 17.9796 10.7273 17.7969L11.0329 16.6345C11.0636 16.4824 11.0636 16.3903 10.9715 16.329C10.4817 15.7178 10.1761 14.801 10.1761 13.8843C10.1761 11.5303 11.9496 9.29779 14.9454 9.29779C17.5743 9.29779 19.4106 11.0406 19.4106 13.5787C19.4106 16.4517 17.944 18.4624 16.0492 18.4624C15.8055 18.4666 15.564 18.4159 15.3426 18.3142C15.1211 18.2125 14.9253 18.0623 14.7697 17.8748C14.614 17.6873 14.5025 17.4672 14.4433 17.2308C14.3841 16.9944 14.3788 16.7477 14.4278 16.509C14.7347 15.2531 15.3459 13.9401 15.3459 13.0206C15.3459 12.1652 14.9175 11.4857 14.0008 11.4857C12.9613 11.4857 12.0473 12.5852 12.0473 14.0531C12.0352 14.5986 12.1394 15.1404 12.3529 15.6424L11.1292 20.9001C10.9464 21.849 11.0385 23.2234 11.1292 24.0494C11.1431 24.189 11.2157 24.4457 11.3985 24.4792C11.4747 24.4853 11.5511 24.4698 11.619 24.4345C11.6868 24.3992 11.7434 24.3456 11.7822 24.2797C12.2399 23.5443 12.8985 22.3401 13.1413 21.4331L13.8752 18.895C14.2115 19.5676 15.2203 20.1187 16.2599 20.1187C19.4999 20.1187 21.7617 17.1885 21.7617 13.5159C21.7659 10.0331 18.9194 7.4043 15.251 7.4043Z" fill="white"/>
</g>
</g>
<defs>
<clipPath id="clip0_1009_77">
<rect width="30" height="30" fill="white"/>
</clipPath>
</defs>
</svg>
