<svg width="30" height="30" viewBox="0 0 30 30" fill="none" xmlns="http://www.w3.org/2000/svg">
<g id="Telegram" clip-path="url(#clip0_1009_81)">
<g id="Telegram_2">
<path id="Background" d="M0 14.4C0 7.61163 -1.99606e-06 4.21395 2.10837 2.10837C4.21674 0.00279063 7.61163 0 14.4 0H15.6C22.3884 0 25.786 0 27.8916 2.10837C29.9972 4.21674 30 7.61163 30 14.4V15.6C30 22.3884 30 25.786 27.8916 27.8916C25.7833 29.9972 22.3884 30 15.6 30H14.4C7.61163 30 4.21395 30 2.10837 27.8916C0.00278863 25.7833 0 22.3884 0 15.6V14.4Z" fill="url(#paint0_linear_1009_81)"/>
<path id="Telegram_3" fill-rule="evenodd" clip-rule="evenodd" d="M6.18115 14.6505C10.9784 12.5603 14.1774 11.1821 15.7784 10.5161C20.3495 8.61421 21.2984 8.28351 21.9179 8.27374C22.1453 8.26834 22.3686 8.33528 22.5556 8.4649C22.6863 8.57896 22.7699 8.73766 22.79 8.91002C22.8233 9.1246 22.8327 9.34221 22.8179 9.55886C22.5695 12.1612 21.4979 18.4765 20.9523 21.39C20.7221 22.6235 20.2686 23.0379 19.8277 23.0784C18.8719 23.1663 18.1463 22.4463 17.2211 21.8393C15.7728 20.8905 14.9537 20.3044 13.5486 19.3723C11.923 18.3021 12.9765 17.7133 13.903 16.7519C14.1458 16.4993 18.3556 12.6691 18.4379 12.3216C18.4485 12.2706 18.447 12.2179 18.4337 12.1675C18.4204 12.1171 18.3956 12.0705 18.3612 12.0314C18.3112 11.9991 18.2542 11.9793 18.195 11.9735C18.1358 11.9676 18.076 11.976 18.0207 11.9979C17.8756 12.0314 15.5616 13.5607 11.0788 16.5858C10.4212 17.0379 9.82627 17.2579 9.29417 17.2458C8.70534 17.2333 7.57511 16.9137 6.73511 16.6403C5.70534 16.3054 4.88627 16.1282 4.95744 15.5589C4.99371 15.2612 5.40162 14.9584 6.18115 14.6505Z" fill="white"/>
</g>
</g>
<defs>
<linearGradient id="paint0_linear_1009_81" x1="0" y1="15" x2="30" y2="15" gradientUnits="userSpaceOnUse">
<stop stop-color="#2AABEE"/>
<stop offset="1" stop-color="#229ED9"/>
</linearGradient>
<clipPath id="clip0_1009_81">
<rect width="30" height="30" fill="white"/>
</clipPath>
</defs>
</svg>
