<svg width="30" height="30" viewBox="0 0 30 30" fill="none" xmlns="http://www.w3.org/2000/svg">
<g id="Viber" clip-path="url(#clip0_1009_85)">
<g id="Viber_2">
<path id="Background" d="M0 14.4C0 7.61163 0 4.21395 2.10837 2.10837C4.21674 0.00278863 7.61163 0 14.4 0H15.6C22.3884 0 25.786 -1.99606e-06 27.8916 2.10837C29.9972 4.21674 30 7.61163 30 14.4V15.6C30 22.3884 30 25.786 27.8916 27.8916C25.7833 29.9972 22.3884 30 15.6 30H14.4C7.61163 30 4.21395 30 2.10837 27.8916C0.00279063 25.7833 0 22.3884 0 15.6V14.4Z" fill="#7360F2"/>
<g id="Viber_3">
<path id="Vector" d="M21.2723 8.70056C20.8537 8.30986 19.1375 7.068 15.3268 7.05126C15.3268 7.05126 10.8323 6.78056 8.64164 8.78986C7.42211 10.0094 6.99374 11.7941 6.94769 14.0071C6.90164 16.2201 6.84443 20.3713 10.8421 21.4875V23.2038C10.8421 23.2038 10.8156 23.9015 11.2733 24.041C11.8314 24.2127 12.1509 23.6852 12.6798 23.1159C12.97 22.8034 13.3775 22.3443 13.6719 21.9996C16.4054 22.2299 18.5082 21.7038 18.7468 21.6257C19.3049 21.4471 22.4221 21.0466 22.9328 16.901C23.4561 12.6229 22.6775 9.9187 21.2723 8.70056ZM21.7356 16.5899C21.3072 20.0517 18.7733 20.2694 18.3058 20.4187C16.878 20.768 15.4046 20.8932 13.9384 20.7899C13.9384 20.7899 12.2082 22.8829 11.6682 23.4201C11.638 23.4561 11.5994 23.4842 11.5559 23.502C11.5124 23.5197 11.4652 23.5266 11.4184 23.522C11.3249 23.4996 11.2998 23.3894 11.2998 23.2289C11.2998 22.9987 11.3151 20.3768 11.3151 20.3768C7.9342 19.4378 8.13095 15.9117 8.17002 14.0601C8.20908 12.2085 8.55513 10.6987 9.58629 9.6801C11.4393 8.00568 15.257 8.25265 15.257 8.25265C18.4802 8.26661 20.0249 9.23777 20.3835 9.56289C21.5723 10.5801 22.1779 13.0178 21.7356 16.5871V16.5899Z" fill="white"/>
<path id="Viber_4" d="M16.8937 14.1259C16.8384 14.126 16.7851 14.1047 16.7451 14.0664C16.7051 14.0282 16.6813 13.9761 16.6788 13.9208C16.6425 13.1882 16.2979 12.831 15.5946 12.7933C15.5376 12.7904 15.4842 12.7649 15.446 12.7225C15.4078 12.6801 15.388 12.6243 15.3909 12.5673C15.3939 12.5103 15.4194 12.4568 15.4617 12.4186C15.5041 12.3804 15.56 12.3606 15.617 12.3636C16.5463 12.4124 17.0625 12.9426 17.11 13.8985C17.1126 13.9556 17.0926 14.0115 17.0541 14.0538C17.0157 14.0962 16.962 14.1216 16.9049 14.1245L16.8937 14.1259Z" fill="white"/>
<path id="Viber_5" d="M17.9986 14.4978C17.9413 14.4964 17.887 14.4724 17.8473 14.4311C17.8076 14.3899 17.7857 14.3346 17.7865 14.2774C17.8066 13.9458 17.76 13.6136 17.6495 13.3004C17.5391 12.9871 17.3669 12.6992 17.1432 12.4536C16.6953 11.9639 16.0814 11.6973 15.2665 11.6373C15.2095 11.6333 15.1565 11.6067 15.119 11.5636C15.0816 11.5204 15.0629 11.4641 15.067 11.4071C15.071 11.3501 15.0976 11.2971 15.1407 11.2597C15.1839 11.2222 15.2402 11.2035 15.2972 11.2076C16.2153 11.2746 16.9423 11.5955 17.4614 12.162C17.7209 12.4491 17.9213 12.7846 18.0511 13.1493C18.1809 13.5139 18.2375 13.9006 18.2177 14.2871C18.2171 14.3153 18.211 14.3432 18.1997 14.369C18.1884 14.3949 18.1721 14.4183 18.1518 14.4379C18.1314 14.4574 18.1074 14.4728 18.0812 14.4831C18.0549 14.4934 18.0268 14.4984 17.9986 14.4978Z" fill="white"/>
<path id="Viber_6" d="M19.1351 14.9383C19.1069 14.9385 19.079 14.9331 19.053 14.9224C19.0269 14.9118 19.0032 14.8961 18.9832 14.8762C18.9633 14.8564 18.9474 14.8328 18.9366 14.8068C18.9258 14.7808 18.9202 14.7529 18.9202 14.7248C18.9104 13.4243 18.5197 12.389 17.7607 11.648C17.3822 11.2804 16.9347 10.9913 16.444 10.7973C15.9534 10.6033 15.4292 10.5083 14.9016 10.5178C14.8718 10.5202 14.8419 10.5164 14.8137 10.5067C14.7854 10.4969 14.7595 10.4814 14.7376 10.4612C14.7156 10.4409 14.6981 10.4163 14.6861 10.389C14.6742 10.3616 14.668 10.3321 14.668 10.3022C14.668 10.2724 14.6742 10.2428 14.6861 10.2155C14.6981 10.1881 14.7156 10.1635 14.7376 10.1433C14.7595 10.123 14.7854 10.1075 14.8137 10.0978C14.8419 10.088 14.8718 10.0842 14.9016 10.0866C16.1574 10.0964 17.2151 10.5178 18.0579 11.3424C18.9007 12.1671 19.3374 13.3043 19.3486 14.7234C19.3488 14.7518 19.3433 14.7799 19.3326 14.8063C19.3219 14.8326 19.3062 14.8565 19.2862 14.8767C19.2663 14.8969 19.2425 14.913 19.2163 14.9241C19.1902 14.9351 19.1621 14.9409 19.1337 14.9411L19.1351 14.9383Z" fill="white"/>
</g>
</g>
</g>
<defs>
<clipPath id="clip0_1009_85">
<rect width="30" height="30" fill="white"/>
</clipPath>
</defs>
</svg>
