<svg width="15" height="15" viewBox="0 0 15 15" fill="none" xmlns="http://www.w3.org/2000/svg">
<g id="vk-logo">
<path id="Vector" d="M14.3479 9.92676C14.0213 9.53473 13.6501 9.18337 13.2912 8.84357C13.1636 8.72272 13.0316 8.59778 12.9044 8.47354C12.5392 8.11648 12.5259 7.98234 12.8151 7.57677C13.0151 7.2972 13.2272 7.01727 13.4323 6.74655C13.6184 6.50092 13.8108 6.24692 13.9952 5.99209L14.033 5.93969C14.3855 5.45204 14.75 4.94779 14.9439 4.33949C14.9943 4.17901 15.0472 3.94284 14.9263 3.74536C14.8054 3.54804 14.571 3.48784 14.4051 3.45973C14.3231 3.44581 14.2416 3.44391 14.166 3.44391L11.858 3.44226L11.8389 3.4421C11.4899 3.4421 11.2548 3.60655 11.12 3.9449C10.9913 4.26819 10.85 4.61245 10.6887 4.93978C10.3678 5.59159 9.96021 6.34234 9.37041 6.96847L9.34547 6.9951C9.27582 7.06996 9.19692 7.15472 9.13924 7.15472C9.1304 7.15472 9.12078 7.15303 9.10988 7.1496C8.98771 7.102 8.90571 6.80625 8.90943 6.66868C8.90947 6.66678 8.90951 6.66488 8.90951 6.66298L8.9079 3.99536C8.9079 3.98611 8.90724 3.97694 8.90604 3.96778C8.84733 3.53413 8.71727 3.26419 8.22586 3.16794C8.21282 3.16534 8.19948 3.16406 8.18619 3.16406H5.78628C5.39528 3.16406 5.17984 3.32298 4.97732 3.56084C4.92265 3.62442 4.80886 3.75679 4.86526 3.91736C4.92249 4.08033 5.10824 4.11517 5.16873 4.12649C5.46898 4.18363 5.63822 4.36728 5.68615 4.68817C5.76984 5.24539 5.78012 5.84015 5.71852 6.55992C5.70135 6.75997 5.66737 6.91446 5.61138 7.04646C5.59837 7.07726 5.55226 7.1778 5.50523 7.17784C5.49028 7.17784 5.44705 7.17198 5.36832 7.11773C5.18215 6.99019 5.04594 6.80819 4.88715 6.58338C4.34693 5.81992 3.89355 4.97888 3.5009 4.01162C3.35528 3.65556 3.08331 3.45622 2.73476 3.45035C2.35177 3.44453 2.00454 3.44172 1.67337 3.44172C1.31152 3.44172 0.976051 3.44507 0.648472 3.45188C0.368043 3.45684 0.174072 3.5409 0.0720079 3.70192C-0.0302214 3.86307 -0.023574 4.07475 0.0917849 4.33099C1.01523 6.38395 1.85251 7.87664 2.80668 9.17111C3.47526 10.0769 4.14586 10.7038 4.91687 11.144C5.72918 11.6087 6.63949 11.8346 7.69977 11.8346C7.81996 11.8346 7.94424 11.8317 8.06955 11.8258C8.68565 11.7958 8.91422 11.5728 8.94312 10.973C8.95687 10.6664 8.99039 10.3449 9.1411 10.0707C9.23622 9.89794 9.32491 9.89794 9.35406 9.89794C9.41021 9.89794 9.47982 9.92379 9.5546 9.97222C9.6887 10.0597 9.80369 10.177 9.89795 10.2794C9.98668 10.3768 10.0744 10.4751 10.1622 10.5734C10.3517 10.7857 10.5477 11.0051 10.7524 11.2133C11.2005 11.6691 11.6941 11.8696 12.261 11.8261H14.3771C14.3816 11.8261 14.3861 11.8259 14.3906 11.8256C14.6015 11.8117 14.7841 11.6948 14.8917 11.5048C15.0249 11.2694 15.0222 10.9691 14.8845 10.7013C14.7282 10.3985 14.5255 10.1398 14.3479 9.92676Z" fill="#707070"/>
</g>
</svg>
