<svg width="30" height="30" viewBox="0 0 30 30" fill="none" xmlns="http://www.w3.org/2000/svg">
<g id="VK 1" clip-path="url(#clip0_1009_59)">
<g id="VK">
<path id="Background" d="M0 14.4C0 7.61163 0 4.21395 2.10837 2.10837C4.21674 0.00279063 7.61163 0 14.4 0H15.6C22.3884 0 25.786 0 27.8916 2.10837C29.9972 4.21674 30 7.61163 30 14.4V15.6C30 22.3884 30 25.786 27.8916 27.8916C25.7833 29.9972 22.3884 30 15.6 30H14.4C7.61163 30 4.21395 30 2.10837 27.8916C0.00279063 25.7833 0 22.3884 0 15.6V14.4Z" fill="#0077FF"/>
<path id="VK_2" d="M15.6297 21.0689C9.23062 21.0689 5.58318 16.6819 5.42969 9.38281H8.63899C8.74364 14.741 11.1074 17.0098 12.9785 17.4758V9.38281H15.9967V14.0042C17.8441 13.8047 19.7864 11.6991 20.4409 9.38281H23.459C22.9567 12.2377 20.8511 14.3433 19.3539 15.2084C20.8511 15.9061 23.2483 17.7465 24.1609 21.0689H20.8329C20.1199 18.8363 18.3422 17.12 15.9911 16.8828V21.0689H15.6297Z" fill="white"/>
</g>
</g>
<defs>
<clipPath id="clip0_1009_59">
<rect width="30" height="30" fill="white"/>
</clipPath>
</defs>
</svg>
