<svg width="30" height="30" viewBox="0 0 30 30" fill="none" xmlns="http://www.w3.org/2000/svg">
<g id="WhatsApp" clip-path="url(#clip0_1009_94)">
<g id="WhatsApp_2">
<path id="Background" d="M0 14.4C0 7.61163 -1.99606e-06 4.21395 2.10837 2.10837C4.21674 0.00279063 7.61163 0 14.4 0H15.6C22.3884 0 25.786 0 27.8916 2.10837C29.9972 4.21674 30 7.61163 30 14.4V15.6C30 22.3884 30 25.786 27.8916 27.8916C25.7833 29.9972 22.3884 30 15.6 30H14.4C7.61163 30 4.21395 30 2.10837 27.8916C0.00278863 25.7833 0 22.3884 0 15.6V14.4Z" fill="#25D366"/>
<g id="WhatsApp_3">
<path id="WhatsApp_4" d="M6.91797 23.2148L8.07611 18.9842C7.17904 17.4272 6.82069 15.6178 7.0566 13.8365C7.29251 12.0551 8.10952 10.4014 9.38094 9.13162C10.6524 7.86185 12.3072 7.04701 14.0888 6.81343C15.8705 6.57984 17.6794 6.94056 19.2352 7.83966C20.791 8.73875 22.0067 10.126 22.6938 11.7863C23.3809 13.4466 23.5011 15.2873 23.0357 17.0228C22.5703 18.7584 21.5454 20.292 20.1197 21.3858C18.6941 22.4795 16.9474 23.0724 15.1505 23.0725C13.7879 23.0728 12.447 22.7312 11.2505 22.079L6.91797 23.2148ZM11.4431 20.6014L11.6915 20.7479C12.7368 21.3676 13.9297 21.6944 15.1449 21.6939C16.6489 21.6936 18.1102 21.1936 19.299 20.2724C20.4879 19.3513 21.3369 18.0611 21.7127 16.6049C22.0885 15.1486 21.9697 13.6087 21.3751 12.2273C20.7804 10.8459 19.7436 9.70123 18.4275 8.97325C17.1115 8.24527 15.5908 7.97524 14.1046 8.2056C12.6184 8.43596 11.2508 9.15366 10.2169 10.2459C9.18296 11.3381 8.54129 12.7429 8.39272 14.2396C8.24415 15.7362 8.5971 17.2397 9.39611 18.5139L9.55797 18.7707L8.87285 21.2753L11.4431 20.6014Z" fill="white"/>
<path id="WhatsApp_5" fill-rule="evenodd" clip-rule="evenodd" d="M19.2575 16.8499C19.2072 16.7648 19.0705 16.7103 18.8668 16.6113C18.6631 16.5122 17.6598 16.0155 17.4714 15.9485C17.2831 15.8815 17.1491 15.8452 17.0124 16.0503C16.8756 16.2555 16.4863 16.7131 16.3663 16.8499C16.2463 16.9866 16.1291 17.0034 15.9254 16.9015C15.3241 16.6609 14.769 16.3181 14.2844 15.8885C13.8385 15.476 13.4562 14.9996 13.15 14.475C13.0314 14.2713 13.1375 14.161 13.2393 14.0564C13.3412 13.9517 13.4431 13.8178 13.5449 13.6992C13.6287 13.596 13.6973 13.4813 13.7486 13.3587C13.776 13.3025 13.7888 13.2404 13.7859 13.178C13.783 13.1155 13.7644 13.0549 13.7319 13.0015C13.6817 12.8996 13.2728 11.895 13.104 11.4861C12.9351 11.0773 12.7691 11.1429 12.6449 11.1359C12.5207 11.1289 12.3896 11.1359 12.2528 11.1359C12.1521 11.14 12.0532 11.1644 11.9621 11.2076C11.871 11.2507 11.7896 11.3118 11.7226 11.3871C11.4919 11.6057 11.3092 11.87 11.1862 12.163C11.0632 12.4561 11.0026 12.7716 11.0082 13.0894C11.0082 14.0927 11.7393 15.0624 11.8454 15.1992C11.9514 15.3359 13.284 17.3955 15.3338 18.2787C15.7136 18.443 16.1021 18.5864 16.4975 18.7085C16.9131 18.8358 17.3529 18.8635 17.7812 18.7894C18.1733 18.7308 18.9882 18.2969 19.1584 17.8127C19.3286 17.3285 19.3147 16.935 19.2575 16.8499Z" fill="white"/>
</g>
</g>
</g>
<defs>
<clipPath id="clip0_1009_94">
<rect width="30" height="30" fill="white"/>
</clipPath>
</defs>
</svg>
